# xmcd
#
# Track frame offsets:
#	150
#	14080
#	30507
#	47137
#	65925
#	84535
#	99550
#	114752
#	131590
#	149365
#	170352
#	187807
#	212562
#	228642
#
# Disc length: 3296 seconds
#
# Revision: 0
# Processed by: cddbd v1.5.2PL0 Copyright (c) Steve Scherf et al.
# Submitted via: EasyCDDAExtractor 15.3.0.1
#
DISCID=c10cde0e
DTITLE=รวมศิลปิน - เสียงเพรียกแห่งชีวิต
DYEAR=2000
DGENRE=Country
TTITLE0=โฮป - กำลังใจ
TTITLE1=ศุ บุญเลี้ยง - จากเพื่อนถึงเพื่อน
TTITLE2=คนด่านเกวียน - ให้เธอ
TTITLE3=แก้ว ลายทอง - หมาเศร้า
TTITLE4=ซูซู - ดอกไม้พฤษภา
TTITLE5=โฮป - ธูปดอกสุดท้าย
TTITLE6=ศู บุญเลี้ยง - เต็มใจให้
TTITLE7=แก้วลายทอง - เธอยังมีฉัน
TTITLE8=คนด่านเกวียน - ก่อนจาก
TTITLE9=ซูซู - คอยเพื่อน
TTITLE10=โฮป - ดอกไม้แห่งกาลเวลา
TTITLE11=ศุ บุญเลี้ยง - เพราะฉะนั้นจึงรักกันเช่นฉะนี้
TTITLE12=คนด่านเกวียน - หญิงสาวผู้จุดประกายฝัน
TTITLE13=แก้วลายทอง - เสียงเพรียกแห่งชีวิต
EXTD=
EXTT0=
EXTT1=
EXTT2=
EXTT3=
EXTT4=
EXTT5=
EXTT6=
EXTT7=
EXTT8=
EXTT9=
EXTT10=
EXTT11=
EXTT12=
EXTT13=
PLAYORDER=
